<?xml version="1.0" standalone="no"?>
<!DOCTYPE svg PUBLIC "-//W3C//DTD SVG 1.1//EN"
  "http://www.w3.org/Graphics/SVG/1.1/DTD/svg11.dtd">
<svg version="1.1" xmlns="http://www.w3.org/2000/svg" xmlns:xlink="http://www.w3.org/1999/xlink" width="1504" height="1864" viewBox="-1247 555.5 1504 1864" id="ccdiagram"><filter id="grayscale"><feColorMatrix type="saturate" values="0"></feColorMatrix></filter><filter id="highlight"><feColorMatrix type="matrix" color-interpolation-filters="sRGB" values="0.20338 0 0 0 0
                0 0.58474 0 0 0
                0 0 0.97033 0 0
                0 0 0 1 0"></feColorMatrix></filter><defs><style type="text/css">@import url('https://fonts.googleapis.com/css?family=Open+Sans:400,700|Inconsolata:400');</style></defs><g><rect x="-1247" y="555.5" width="1504" height="1864" fill="#ffffff" id="interactionLayer"></rect><g pointer-events="auto"><g><g><g><polygon points="-1170 1485, 180 1485, 225 1530, 225 2340, 180 2385, -1170 2385, -1215 2340, -1215 1530" fill="#ff9800" stroke-width="0" stroke="#e6e7e8"></polygon><polygon points="-1170 1530, 180 1530, 180 2340, -1170 2340" fill="#e6e7e8"></polygon></g></g></g></g><g pointer-events="auto"></g><g pointer-events="auto"></g><g pointer-events="auto"></g><g pointer-events="auto"></g><g pointer-events="auto"></g><g pointer-events="auto"></g><g pointer-events="auto"></g><g pointer-events="auto"></g><g pointer-events="auto"></g><g pointer-events="none"></g><g pointer-events="auto"><g id="60aaedb4-a314-4981-a71b-0d0fe749ba1e-2492a900-185e-4906-87d5-978505d2885d"><g cursor="cell"><line x1="-855" y1="1465" x2="-855" y2="1607" stroke="red" stroke-width="8" opacity="0"></line><line x1="-855" y1="1465" x2="-855" y2="1607" stroke="#000000" stroke-width="2" stroke-linecap="round"></line><polygon points="-855 1620, -844 1596, -855 1602, -866 1596, -855 1620" stroke-linejoin="round" fill="#000000" stroke="#000000" stroke-width="1"></polygon></g></g><g id="32217929-f881-4f6d-ac85-119cd380d75a-60aaedb4-a314-4981-a71b-0d0fe749ba1e"><g cursor="cell"><line x1="-675" y1="990" x2="-849" y2="1313" stroke="red" stroke-width="8" opacity="0"></line><line x1="-675" y1="990" x2="-849" y2="1313" stroke="#000000" stroke-width="2" stroke-linecap="round"></line><polygon points="-855 1325, -833 1309, -847 1310, -853 1298, -855 1325" stroke-linejoin="round" fill="#000000" stroke="#000000" stroke-width="1"></polygon></g></g><g id="32217929-f881-4f6d-ac85-119cd380d75a-390f3bd3-7fcf-423c-a753-57f970a15833"><g cursor="cell"><line x1="-720" y1="945" x2="-785" y2="945" stroke="red" stroke-width="8" opacity="0"></line><line x1="-720" y1="945" x2="-785" y2="945" stroke="#000000" stroke-width="2" stroke-linecap="round"></line></g></g><g id="0373611a-678b-41b4-ae18-7b5c13d4adc1-93c99d13-979c-4dad-a15c-f4fa45480294"><g cursor="cell"><line x1="-810" y1="1845" x2="-193" y2="1845" stroke="red" stroke-width="8" opacity="0"></line><line x1="-810" y1="1845" x2="-193" y2="1845" stroke="#000000" stroke-width="2" stroke-linecap="round"></line><polygon points="-180 1845, -204 1834, -198 1845, -204 1856, -180 1845" stroke-linejoin="round" fill="#000000" stroke="#000000" stroke-width="1"></polygon></g></g><g id="1c0645a5-f4ea-459d-aac8-0aa1c30b5c2d-93c99d13-979c-4dad-a15c-f4fa45480294"><g cursor="cell"><line x1="-135" y1="1465" x2="-135" y2="1787" stroke="red" stroke-width="8" opacity="0"></line><line x1="-135" y1="1465" x2="-135" y2="1787" stroke="#000000" stroke-width="2" stroke-linecap="round"></line><polygon points="-135 1800, -124 1776, -135 1782, -146 1776, -135 1800" stroke-linejoin="round" fill="#000000" stroke="#000000" stroke-width="1"></polygon></g></g><g id="93c99d13-979c-4dad-a15c-f4fa45480294-a50dee94-94dc-4bba-a2f7-8b71ea34094e"><g cursor="cell"><line x1="-90" y1="1845" x2="-25" y2="1845" stroke="red" stroke-width="8" opacity="0"></line><line x1="-90" y1="1845" x2="-25" y2="1845" stroke="#000000" stroke-width="2" stroke-linecap="round"></line></g></g><g id="d2c44fa9-83ce-4cdf-ae05-eccbdfa28c03-32217929-f881-4f6d-ac85-119cd380d75a"><g cursor="cell"><line x1="-495" y1="745" x2="-665" y2="891" stroke="red" stroke-width="8" opacity="0"></line><line x1="-495" y1="745" x2="-665" y2="891" stroke="#000000" stroke-width="2" stroke-linecap="round"></line><polygon points="-675 900, -649 893, -662 889, -664 875, -675 900" stroke-linejoin="round" fill="#000000" stroke="#000000" stroke-width="1"></polygon></g></g><g id="32217929-f881-4f6d-ac85-119cd380d75a-0f138b88-cb4a-4799-b174-8e05df07e54e"><g cursor="cell"><line x1="-675" y1="990" x2="-504" y2="1171" stroke="red" stroke-width="8" opacity="0"></line><line x1="-675" y1="990" x2="-504" y2="1171" stroke="#000000" stroke-width="2" stroke-linecap="round"></line><polygon points="-495 1181, -503 1155, -507 1168, -520 1171, -495 1181" stroke-linejoin="round" fill="#000000" stroke="#000000" stroke-width="1"></polygon></g></g><g id="b3dbbf73-a9ee-4912-91b1-154895a8322b-1c0645a5-f4ea-459d-aac8-0aa1c30b5c2d"><g cursor="cell"><line x1="-315" y1="990" x2="-141" y2="1313" stroke="red" stroke-width="8" opacity="0"></line><line x1="-315" y1="990" x2="-141" y2="1313" stroke="#000000" stroke-width="2" stroke-linecap="round"></line><polygon points="-135 1325, -137 1298, -143 1310, -157 1309, -135 1325" stroke-linejoin="round" fill="#000000" stroke="#000000" stroke-width="1"></polygon></g></g><g id="2492a900-185e-4906-87d5-978505d2885d-c47b119b-1e90-40ee-9c6e-4271851cd986"><g cursor="cell"><line x1="-900" y1="1665" x2="-965" y2="1665" stroke="red" stroke-width="8" opacity="0"></line><line x1="-900" y1="1665" x2="-965" y2="1665" stroke="#000000" stroke-width="2" stroke-linecap="round"></line></g></g><g id="0373611a-678b-41b4-ae18-7b5c13d4adc1-d513551a-6682-4679-9a97-d480cd234fcf"><g cursor="cell"><line x1="-900" y1="1845" x2="-1001" y2="1845" stroke="red" stroke-width="8" opacity="0"></line><line x1="-900" y1="1845" x2="-1001" y2="1845" stroke="#000000" stroke-width="2" stroke-linecap="round"></line></g></g><g id="40ff562f-4aa8-4400-9b32-455bc7912b1d-eba35090-a459-435c-909c-d599733228ce"><g cursor="cell"><line x1="-135" y1="2070" x2="-135" y2="2147" stroke="red" stroke-width="8" opacity="0"></line><line x1="-135" y1="2070" x2="-135" y2="2147" stroke="#000000" stroke-width="2" stroke-linecap="round"></line><polygon points="-135 2160, -124 2136, -135 2142, -146 2136, -135 2160" stroke-linejoin="round" fill="#000000" stroke="#000000" stroke-width="1"></polygon></g></g><g id="2492a900-185e-4906-87d5-978505d2885d-0373611a-678b-41b4-ae18-7b5c13d4adc1"><g cursor="cell"><line x1="-855" y1="1710" x2="-855" y2="1787" stroke="red" stroke-width="8" opacity="0"></line><line x1="-855" y1="1710" x2="-855" y2="1787" stroke="#000000" stroke-width="2" stroke-linecap="round"></line><polygon points="-855 1800, -844 1776, -855 1782, -866 1776, -855 1800" stroke-linejoin="round" fill="#000000" stroke="#000000" stroke-width="1"></polygon></g></g><g id="b3dbbf73-a9ee-4912-91b1-154895a8322b-016b29aa-9205-4a4c-afd6-793da2ae6939"><g cursor="cell"><line x1="-270" y1="945" x2="-205" y2="945" stroke="red" stroke-width="8" opacity="0"></line><line x1="-270" y1="945" x2="-205" y2="945" stroke="#000000" stroke-width="2" stroke-linecap="round"></line></g></g><g id="93c99d13-979c-4dad-a15c-f4fa45480294-40ff562f-4aa8-4400-9b32-455bc7912b1d"><g cursor="cell"><line x1="-135" y1="1890" x2="-135" y2="1967" stroke="red" stroke-width="8" opacity="0"></line><line x1="-135" y1="1890" x2="-135" y2="1967" stroke="#000000" stroke-width="2" stroke-linecap="round"></line><polygon points="-135 1980, -124 1956, -135 1962, -146 1956, -135 1980" stroke-linejoin="round" fill="#000000" stroke="#000000" stroke-width="1"></polygon></g></g><g id="d2c44fa9-83ce-4cdf-ae05-eccbdfa28c03-b3dbbf73-a9ee-4912-91b1-154895a8322b"><g cursor="cell"><line x1="-495" y1="745" x2="-325" y2="891" stroke="red" stroke-width="8" opacity="0"></line><line x1="-495" y1="745" x2="-325" y2="891" stroke="#000000" stroke-width="2" stroke-linecap="round"></line><polygon points="-315 900, -326 875, -328 889, -341 893, -315 900" stroke-linejoin="round" fill="#000000" stroke="#000000" stroke-width="1"></polygon></g></g><g id="40ff562f-4aa8-4400-9b32-455bc7912b1d-1f0031e5-c669-4c02-9429-681d01415ed6"><g cursor="cell"><line x1="-90" y1="2025" x2="11" y2="2025" stroke="red" stroke-width="8" opacity="0"></line><line x1="-90" y1="2025" x2="11" y2="2025" stroke="#000000" stroke-width="2" stroke-linecap="round"></line></g></g></g><g pointer-events="auto"></g><g pointer-events="auto"></g><g pointer-events="auto"><g><g id="32217929-f881-4f6d-ac85-119cd380d75a"><svg x="-675" y="945" overflow="visible"><g transform="scale(1.4131949617798671) "><circle cx="0" cy="0" fill="transparent" r="39"></circle><svg width="64" height="64" x="-32" y="-32" style="fill: rgb(255, 255, 255);"><svg xmlns="http://www.w3.org/2000/svg" width="64" height="64" viewBox="0 0 64 64"><defs><linearGradient id="CloudFront_svg__a" x1="0%" x2="100%" y1="100%" y2="0%"><stop offset="0%" stop-color="#4D27A8"></stop><stop offset="100%" stop-color="#A166FF"></stop></linearGradient></defs><g fill="none" fill-rule="evenodd"><g fill="url(#CloudFront_svg__a)"><path d="M0 0h64v64H0z"></path></g><path fill="#FFF" d="M41.5 43.5c-1.103 0-2-.897-2-2s.897-2 2-2 2 .897 2 2-.897 2-2 2Zm0-6c-2.206 0-4 1.794-4 4s1.794 4 4 4 4-1.794 4-4-1.794-4-4-4Zm-19-5c-1.103 0-2-.897-2-2s.897-2 2-2 2 .897 2 2-.897 2-2 2Zm0-6c-2.206 0-4 1.794-4 4s1.794 4 4 4 4-1.794 4-4-1.794-4-4-4Zm22.889 20.624a28.66 28.66 0 0 0-.704-1.533l-1.789.895c.274.549.524 1.113.76 1.679a18.996 18.996 0 0 1-2.628 1.575c.356-.875.666-1.765.946-2.728l-1.92-.558a25.23 25.23 0 0 1-1.87 4.679A19.193 19.193 0 0 1 32.5 52c-3.035 0-5.933-.686-8.629-2.024-1.368-3.361-2.033-6.442-2.033-9.417 0-1.292.225-2.363.484-3.603.064-.304.128-.613.192-.932l-1.963-.386c-.061.311-.124.612-.186.907-.271 1.293-.527 2.515-.527 4.014 0 2.515.436 5.085 1.316 7.795A19.458 19.458 0 0 1 13 32.5c0-.111.01-.227.012-.339a24.175 24.175 0 0 1 4.842-.59l-.05-1.999c-1.635.04-3.11.207-4.641.512.918-7.401 6.049-13.69 13.16-16.065 1.55.799 2.697 1.505 3.812 2.351l1.209-1.594a24.194 24.194 0 0 0-2.198-1.477A19.548 19.548 0 0 1 32.5 13c2.532 0 5.032.494 7.349 1.439a32.58 32.58 0 0 0-1.606.532l.68 1.881c1.393-.503 2.485-.812 3.648-1.031C48.399 19.341 52 25.667 52 32.5a19.358 19.358 0 0 1-6.611 14.624Zm-2.381-33.375A21.385 21.385 0 0 0 32.5 11c-2.108 0-4.176.301-6.143.895-8.634 2.569-14.789 10.335-15.312 19.301-.035.429-.045.866-.045 1.304a21.466 21.466 0 0 0 11.354 18.955A21.541 21.541 0 0 0 32.5 54a21.1 21.1 0 0 0 6.937-1.157 21.038 21.038 0 0 0 6.209-3.336C50.955 45.399 54 39.2 54 32.5a21.517 21.517 0 0 0-10.992-18.751Zm-4.624 23.662-1.381 1.447c-2.981-2.843-5.956-4.712-9.366-5.883l.65-1.892c3.692 1.268 6.901 3.279 10.097 6.328Zm.06-15.047c2.838 4.328 4.436 9.08 4.749 14.124l-1.996.124c-.292-4.693-1.78-9.117-4.425-13.152l1.672-1.096Zm-11.993 4.433-1.678-1.089c1.543-2.376 2.866-3.95 4.563-5.43l1.314 1.508c-1.547 1.349-2.764 2.801-4.199 5.011ZM34.5 16.5c1.103 0 2 .897 2 2s-.897 2-2 2-2-.897-2-2 .897-2 2-2Zm0 6c2.206 0 4-1.794 4-4s-1.794-4-4-4-4 1.794-4 4 1.794 4 4 4Z"></path></g></svg></svg></g></svg></g></g><g><g id="b3dbbf73-a9ee-4912-91b1-154895a8322b"><svg x="-315" y="945" overflow="visible"><g transform="scale(1.4131949617798671) "><circle cx="0" cy="0" fill="transparent" r="39"></circle><svg width="64" height="64" x="-32" y="-32" style="fill: rgb(255, 255, 255);"><svg xmlns="http://www.w3.org/2000/svg" width="64" height="64" viewBox="0 0 64 64"><defs><linearGradient id="CloudFront_svg__a" x1="0%" x2="100%" y1="100%" y2="0%"><stop offset="0%" stop-color="#4D27A8"></stop><stop offset="100%" stop-color="#A166FF"></stop></linearGradient></defs><g fill="none" fill-rule="evenodd"><g fill="url(#CloudFront_svg__a)"><path d="M0 0h64v64H0z"></path></g><path fill="#FFF" d="M41.5 43.5c-1.103 0-2-.897-2-2s.897-2 2-2 2 .897 2 2-.897 2-2 2Zm0-6c-2.206 0-4 1.794-4 4s1.794 4 4 4 4-1.794 4-4-1.794-4-4-4Zm-19-5c-1.103 0-2-.897-2-2s.897-2 2-2 2 .897 2 2-.897 2-2 2Zm0-6c-2.206 0-4 1.794-4 4s1.794 4 4 4 4-1.794 4-4-1.794-4-4-4Zm22.889 20.624a28.66 28.66 0 0 0-.704-1.533l-1.789.895c.274.549.524 1.113.76 1.679a18.996 18.996 0 0 1-2.628 1.575c.356-.875.666-1.765.946-2.728l-1.92-.558a25.23 25.23 0 0 1-1.87 4.679A19.193 19.193 0 0 1 32.5 52c-3.035 0-5.933-.686-8.629-2.024-1.368-3.361-2.033-6.442-2.033-9.417 0-1.292.225-2.363.484-3.603.064-.304.128-.613.192-.932l-1.963-.386c-.061.311-.124.612-.186.907-.271 1.293-.527 2.515-.527 4.014 0 2.515.436 5.085 1.316 7.795A19.458 19.458 0 0 1 13 32.5c0-.111.01-.227.012-.339a24.175 24.175 0 0 1 4.842-.59l-.05-1.999c-1.635.04-3.11.207-4.641.512.918-7.401 6.049-13.69 13.16-16.065 1.55.799 2.697 1.505 3.812 2.351l1.209-1.594a24.194 24.194 0 0 0-2.198-1.477A19.548 19.548 0 0 1 32.5 13c2.532 0 5.032.494 7.349 1.439a32.58 32.58 0 0 0-1.606.532l.68 1.881c1.393-.503 2.485-.812 3.648-1.031C48.399 19.341 52 25.667 52 32.5a19.358 19.358 0 0 1-6.611 14.624Zm-2.381-33.375A21.385 21.385 0 0 0 32.5 11c-2.108 0-4.176.301-6.143.895-8.634 2.569-14.789 10.335-15.312 19.301-.035.429-.045.866-.045 1.304a21.466 21.466 0 0 0 11.354 18.955A21.541 21.541 0 0 0 32.5 54a21.1 21.1 0 0 0 6.937-1.157 21.038 21.038 0 0 0 6.209-3.336C50.955 45.399 54 39.2 54 32.5a21.517 21.517 0 0 0-10.992-18.751Zm-4.624 23.662-1.381 1.447c-2.981-2.843-5.956-4.712-9.366-5.883l.65-1.892c3.692 1.268 6.901 3.279 10.097 6.328Zm.06-15.047c2.838 4.328 4.436 9.08 4.749 14.124l-1.996.124c-.292-4.693-1.78-9.117-4.425-13.152l1.672-1.096Zm-11.993 4.433-1.678-1.089c1.543-2.376 2.866-3.95 4.563-5.43l1.314 1.508c-1.547 1.349-2.764 2.801-4.199 5.011ZM34.5 16.5c1.103 0 2 .897 2 2s-.897 2-2 2-2-.897-2-2 .897-2 2-2Zm0 6c2.206 0 4-1.794 4-4s-1.794-4-4-4-4 1.794-4 4 1.794 4 4 4Z"></path></g></svg></svg></g></svg></g></g><g><g id="d2c44fa9-83ce-4cdf-ae05-eccbdfa28c03"><svg x="-495" y="675" overflow="visible"><g transform="scale(1.3975424859373686) "><circle cx="0" cy="0" fill="transparent" r="40"></circle><svg width="100" height="100" x="-50" y="-50" style="fill: rgb(255, 255, 255);"><svg xmlns="http://www.w3.org/2000/svg" width="100" height="100" data-name="Layer 1" viewBox="0 0 100 100"><g><path fill="#9d5025" d="M50.51 24a1.13 1.13 0 0 1 .69.22c3 3.34 5.92 4.45 8.57 4.45 5.32 0 17.24 3.75 17.44 3.52v2.51c-.21.25-4.28 5-4.05 10.6.13 3.33 1.78 5.58 3.17 8 .55.95 2 3.68 2 3.68v2.42a11.39 11.39 0 0 1-.24 2.29c-2.73 13.42-15.84 8-26.46 16.72a.82.82 0 0 1-.51.22.47.47 0 0 1-.39-.22c-6.44-7.77-26.3-1.29-28.76-16.72a16.86 16.86 0 0 1-.26-2.69v-2.46s1.44-3.23 1.89-4c1.08-1.93 2.25-3.73 2.38-6.67.22-4.9-3.83-10-4-10.25v-2.51c.21.21 13.56-4.76 19.08-4.76 2.76 0 5.87-1 9-4.14a.72.72 0 0 1 .45-.21Z"></path><path fill="#f58536" d="M50.51 21.54a1.13 1.13 0 0 1 .69.22c3 3.34 5.92 4.45 8.57 4.45 5.32 0 9.14-4.26 9.34-4.49l8.1 10.49c-.21.25-4.28 5-4.05 10.6.27 6.57 6.4 8.95 4.89 16.39-2.73 13.42-15.84 8-26.46 16.72a.82.82 0 0 1-.51.22.47.47 0 0 1-.39-.22c-6.44-7.77-26.3-1.29-28.76-16.72-1.36-8.46 3.75-9.49 4-15.84.22-4.9-3.83-10-4-10.25l9.43-11.38A14.74 14.74 0 0 0 41 25.86c2.76 0 5.87-1 9-4.14a.72.72 0 0 1 .51-.18Z"></path></g></svg></svg></g></svg></g></g><g><g id="60aaedb4-a314-4981-a71b-0d0fe749ba1e"><svg x="-855" y="1395" overflow="visible"><g transform="scale(1.3975424859373686) "><circle cx="0" cy="0" fill="transparent" r="40"></circle><svg width="100" height="100" x="-50" y="-50" style="fill: rgb(255, 255, 255);"><svg xmlns="http://www.w3.org/2000/svg" width="100" height="100" data-name="Layer 1" viewBox="0 0 100 100"><g><path fill="#9d5025" d="M50.51 24a1.13 1.13 0 0 1 .69.22c3 3.34 5.92 4.45 8.57 4.45 5.32 0 17.24 3.75 17.44 3.52v2.51c-.21.25-4.28 5-4.05 10.6.13 3.33 1.78 5.58 3.17 8 .55.95 2 3.68 2 3.68v2.42a11.39 11.39 0 0 1-.24 2.29c-2.73 13.42-15.84 8-26.46 16.72a.82.82 0 0 1-.51.22.47.47 0 0 1-.39-.22c-6.44-7.77-26.3-1.29-28.76-16.72a16.86 16.86 0 0 1-.26-2.69v-2.46s1.44-3.23 1.89-4c1.08-1.93 2.25-3.73 2.38-6.67.22-4.9-3.83-10-4-10.25v-2.51c.21.21 13.56-4.76 19.08-4.76 2.76 0 5.87-1 9-4.14a.72.72 0 0 1 .45-.21Z"></path><path fill="#f58536" d="M50.51 21.54a1.13 1.13 0 0 1 .69.22c3 3.34 5.92 4.45 8.57 4.45 5.32 0 9.14-4.26 9.34-4.49l8.1 10.49c-.21.25-4.28 5-4.05 10.6.27 6.57 6.4 8.95 4.89 16.39-2.73 13.42-15.84 8-26.46 16.72a.82.82 0 0 1-.51.22.47.47 0 0 1-.39-.22c-6.44-7.77-26.3-1.29-28.76-16.72-1.36-8.46 3.75-9.49 4-15.84.22-4.9-3.83-10-4-10.25l9.43-11.38A14.74 14.74 0 0 0 41 25.86c2.76 0 5.87-1 9-4.14a.72.72 0 0 1 .51-.18Z"></path></g></svg></svg></g></svg></g></g><g><g id="1c0645a5-f4ea-459d-aac8-0aa1c30b5c2d"><svg x="-135" y="1395" overflow="visible"><g transform="scale(1.3975424859373686) "><circle cx="0" cy="0" fill="transparent" r="40"></circle><svg width="100" height="100" x="-50" y="-50" style="fill: rgb(255, 255, 255);"><svg xmlns="http://www.w3.org/2000/svg" width="100" height="100" data-name="Layer 1" viewBox="0 0 100 100"><g><path fill="#9d5025" d="M50.51 24a1.13 1.13 0 0 1 .69.22c3 3.34 5.92 4.45 8.57 4.45 5.32 0 17.24 3.75 17.44 3.52v2.51c-.21.25-4.28 5-4.05 10.6.13 3.33 1.78 5.58 3.17 8 .55.95 2 3.68 2 3.68v2.42a11.39 11.39 0 0 1-.24 2.29c-2.73 13.42-15.84 8-26.46 16.72a.82.82 0 0 1-.51.22.47.47 0 0 1-.39-.22c-6.44-7.77-26.3-1.29-28.76-16.72a16.86 16.86 0 0 1-.26-2.69v-2.46s1.44-3.23 1.89-4c1.08-1.93 2.25-3.73 2.38-6.67.22-4.9-3.83-10-4-10.25v-2.51c.21.21 13.56-4.76 19.08-4.76 2.76 0 5.87-1 9-4.14a.72.72 0 0 1 .45-.21Z"></path><path fill="#f58536" d="M50.51 21.54a1.13 1.13 0 0 1 .69.22c3 3.34 5.92 4.45 8.57 4.45 5.32 0 9.14-4.26 9.34-4.49l8.1 10.49c-.21.25-4.28 5-4.05 10.6.27 6.57 6.4 8.95 4.89 16.39-2.73 13.42-15.84 8-26.46 16.72a.82.82 0 0 1-.51.22.47.47 0 0 1-.39-.22c-6.44-7.77-26.3-1.29-28.76-16.72-1.36-8.46 3.75-9.49 4-15.84.22-4.9-3.83-10-4-10.25l9.43-11.38A14.74 14.74 0 0 0 41 25.86c2.76 0 5.87-1 9-4.14a.72.72 0 0 1 .51-.18Z"></path></g></svg></svg></g></svg></g></g><g><g id="2492a900-185e-4906-87d5-978505d2885d"><svg x="-855" y="1665" overflow="visible"><g transform="scale(1.4131949617798671) "><circle cx="0" cy="0" fill="transparent" r="39"></circle><svg width="64" height="64" x="-32" y="-32" style="fill: rgb(255, 255, 255);"><svg xmlns="http://www.w3.org/2000/svg" width="64" height="64" viewBox="0 0 64 64"><defs><linearGradient id="API-Gateway_svg__a" x1="0%" x2="100%" y1="100%" y2="0%"><stop offset="0%" stop-color="#B0084D"></stop><stop offset="100%" stop-color="#FF4F8B"></stop></linearGradient></defs><g fill="none" fill-rule="evenodd"><g fill="url(#API-Gateway_svg__a)"><path d="M0 0h64v64H0z"></path></g><g fill="#FFF"><path d="M28 44h3v-2h-3v2Zm5 0h3v-2h-3v2Zm-5-22h3v-2h-3v2Zm5 0h3v-2h-3v2Zm-11-9.26-10 5.834v27.808l10 5V12.741ZM24 20h2v2h-2v20h2v2h-2v9a1.001 1.001 0 0 1-1.447.895l-12-6A1.001 1.001 0 0 1 10 47V18a1 1 0 0 1 .496-.864l12-7A1.002 1.002 0 0 1 24 11v9Zm28-1.426L42 12.74v38.641l10-5V18.574ZM54 18v29c0 .379-.214.725-.553.895l-12 6a1.005 1.005 0 0 1-.972-.044A1.001 1.001 0 0 1 40 53v-9h-2v-2h2V22h-2v-2h2v-9a.998.998 0 0 1 1.504-.864l12 7A1 1 0 0 1 54 18Zm-19.061 9.342-1.878-.684-4 11 1.878.684 4-11Zm4.768 5.365a.999.999 0 0 0 0-1.414l-3-3-1.414 1.414L37.586 32l-2.293 2.293 1.414 1.414 3-3Zm-12.414 3-3-3a.999.999 0 0 1 0-1.414l3-3 1.414 1.414L26.414 32l2.293 2.293-1.414 1.414Z"></path></g></g></svg></svg></g></svg></g></g><g><g id="93c99d13-979c-4dad-a15c-f4fa45480294"><svg x="-135" y="1845" overflow="visible"><g transform="scale(1.4131949617798671) "><circle cx="0" cy="0" fill="transparent" r="39"></circle><svg width="64" height="64" x="-32" y="-32" style="fill: rgb(255, 255, 255);"><svg xmlns="http://www.w3.org/2000/svg" width="64" height="64" viewBox="0 0 64 64"><defs><linearGradient id="API-Gateway_svg__a" x1="0%" x2="100%" y1="100%" y2="0%"><stop offset="0%" stop-color="#B0084D"></stop><stop offset="100%" stop-color="#FF4F8B"></stop></linearGradient></defs><g fill="none" fill-rule="evenodd"><g fill="url(#API-Gateway_svg__a)"><path d="M0 0h64v64H0z"></path></g><g fill="#FFF"><path d="M28 44h3v-2h-3v2Zm5 0h3v-2h-3v2Zm-5-22h3v-2h-3v2Zm5 0h3v-2h-3v2Zm-11-9.26-10 5.834v27.808l10 5V12.741ZM24 20h2v2h-2v20h2v2h-2v9a1.001 1.001 0 0 1-1.447.895l-12-6A1.001 1.001 0 0 1 10 47V18a1 1 0 0 1 .496-.864l12-7A1.002 1.002 0 0 1 24 11v9Zm28-1.426L42 12.74v38.641l10-5V18.574ZM54 18v29c0 .379-.214.725-.553.895l-12 6a1.005 1.005 0 0 1-.972-.044A1.001 1.001 0 0 1 40 53v-9h-2v-2h2V22h-2v-2h2v-9a.998.998 0 0 1 1.504-.864l12 7A1 1 0 0 1 54 18Zm-19.061 9.342-1.878-.684-4 11 1.878.684 4-11Zm4.768 5.365a.999.999 0 0 0 0-1.414l-3-3-1.414 1.414L37.586 32l-2.293 2.293 1.414 1.414 3-3Zm-12.414 3-3-3a.999.999 0 0 1 0-1.414l3-3 1.414 1.414L26.414 32l2.293 2.293-1.414 1.414Z"></path></g></g></svg></svg></g></svg></g></g><g><g id="0373611a-678b-41b4-ae18-7b5c13d4adc1"><svg x="-855" y="1845" overflow="visible"><g transform="scale(1.4131949617798671) "><circle cx="0" cy="0" fill="transparent" r="39"></circle><svg width="64" height="64" x="-32" y="-32" style="fill: rgb(255, 255, 255);"><svg xmlns="http://www.w3.org/2000/svg" width="64" height="64" viewBox="0 0 64 64"><defs><linearGradient id="Lambda_svg__a" x1="0%" x2="100%" y1="100%" y2="0%"><stop offset="0%" stop-color="#C8511B"></stop><stop offset="100%" stop-color="#F90"></stop></linearGradient></defs><g fill="none" fill-rule="evenodd"><g fill="url(#Lambda_svg__a)"><path d="M0 0h64v64H0z"></path></g><path fill="#FFF" d="M22.68 52h-9.106l10.264-21.59 4.562 9.451L22.68 52Zm2.047-24.333a.994.994 0 0 0-.896-.564h-.003a.994.994 0 0 0-.896.569L11.097 52.569c-.147.31-.126.674.057.965.181.29.5.466.842.466H23.31a.996.996 0 0 0 .9-.572l6.194-13.144a1.003 1.003 0 0 0-.005-.864l-5.672-11.753ZM51.008 52h-9.022L26.955 19.578a.997.997 0 0 0-.903-.578h-5.924l.007-7h11.68l14.96 32.42c.163.354.516.58.904.58h3.33v7Zm.996-9h-3.69l-14.96-32.42a.995.995 0 0 0-.903-.58H19.14a.999.999 0 0 0-.996.999l-.008 9A.993.993 0 0 0 19.131 21h6.286l15.03 32.422a.995.995 0 0 0 .903.578h10.654c.55 0 .996-.448.996-1v-9c0-.552-.445-1-.996-1Z"></path></g></svg></svg></g></svg></g></g><g><g id="40ff562f-4aa8-4400-9b32-455bc7912b1d"><svg x="-135" y="2025" overflow="visible"><g transform="scale(1.4131949617798671) "><circle cx="0" cy="0" fill="transparent" r="39"></circle><svg width="64" height="64" x="-32" y="-32" style="fill: rgb(255, 255, 255);"><svg xmlns="http://www.w3.org/2000/svg" width="64" height="64" viewBox="0 0 64 64"><defs><linearGradient id="Lambda_svg__a" x1="0%" x2="100%" y1="100%" y2="0%"><stop offset="0%" stop-color="#C8511B"></stop><stop offset="100%" stop-color="#F90"></stop></linearGradient></defs><g fill="none" fill-rule="evenodd"><g fill="url(#Lambda_svg__a)"><path d="M0 0h64v64H0z"></path></g><path fill="#FFF" d="M22.68 52h-9.106l10.264-21.59 4.562 9.451L22.68 52Zm2.047-24.333a.994.994 0 0 0-.896-.564h-.003a.994.994 0 0 0-.896.569L11.097 52.569c-.147.31-.126.674.057.965.181.29.5.466.842.466H23.31a.996.996 0 0 0 .9-.572l6.194-13.144a1.003 1.003 0 0 0-.005-.864l-5.672-11.753ZM51.008 52h-9.022L26.955 19.578a.997.997 0 0 0-.903-.578h-5.924l.007-7h11.68l14.96 32.42c.163.354.516.58.904.58h3.33v7Zm.996-9h-3.69l-14.96-32.42a.995.995 0 0 0-.903-.58H19.14a.999.999 0 0 0-.996.999l-.008 9A.993.993 0 0 0 19.131 21h6.286l15.03 32.422a.995.995 0 0 0 .903.578h10.654c.55 0 .996-.448.996-1v-9c0-.552-.445-1-.996-1Z"></path></g></svg></svg></g></svg></g></g><g><g id="eba35090-a459-435c-909c-d599733228ce"><svg x="-135" y="2205" overflow="visible"><g transform="scale(1.4131949617798671) "><circle cx="0" cy="0" fill="transparent" r="39"></circle><svg width="64" height="64" x="-32" y="-32" style="fill: rgb(255, 255, 255);"><svg xmlns="http://www.w3.org/2000/svg" width="64" height="64" viewBox="0 0 64 64"><defs><linearGradient id="DynamoDB_svg__a" x1="0%" x2="100%" y1="100%" y2="0%"><stop offset="0%" stop-color="#2E27AD"></stop><stop offset="100%" stop-color="#527FFF"></stop></linearGradient></defs><g fill="none" fill-rule="evenodd"><g fill="url(#DynamoDB_svg__a)"><path d="M0 0h64v64H0z"></path></g><path fill="#FFF" d="M46.586 25.25H43a.998.998 0 0 1-.822-.435 1.018 1.018 0 0 1-.114-.931l2.493-6.722h-8.913l-4.091 9.098H36c.32 0 .623.156.812.42.187.264.239.602.136.91l-3.66 11.101L46.586 25.25Zm3.12-.297L31.709 43.15a.992.992 0 0 1-1.232.146 1.014 1.014 0 0 1-.423-1.18l4.56-13.833H30a1 1 0 0 1-.841-.463 1.024 1.024 0 0 1-.07-.966l5-11.12a.998.998 0 0 1 .91-.593h11c.329 0 .636.163.823.435.187.273.23.62.115.931l-2.494 6.721H49a1 1 0 0 1 .924.624c.155.378.069.813-.217 1.102ZM41.002 44.22c-2.71 1.886-7.687 2.882-12.468 2.882-4.816 0-9.837-1.01-12.533-2.924l.001 3.816c0 1.664 4.768 3.984 12.532 3.984 7.495 0 12.468-2.702 12.468-4.49V44.22Zm2.064-3.27c0 .187-.032.367-.064.546v5.993C43 51.079 36.51 54 28.533 54c-6.903 0-13.871-1.89-14.473-5.5h-.059L14 43.445V16.151h.001c0-3.996 7.487-6.151 14.532-6.151 3.94 0 7.73.64 10.397 1.756l-.766 1.868c-2.432-1.019-5.943-1.602-9.631-1.602-7.764 0-12.532 2.405-12.532 4.13 0 1.724 4.768 4.129 12.532 4.129.195 0 .399 0 .596-.007l.078 2.02c-.225.009-.45.009-.674.009-4.817 0-9.837-1.01-12.533-2.924v4.358h.001v.017c.005.53.489 1.143 1.364 1.72 1.982 1.288 5.55 2.168 9.539 2.351l-.091 2.02c-4.126-.19-7.75-1.069-10.086-2.416-.31.298-.726 1.056-.726 1.467 0 1.724 4.768 4.129 12.532 4.129.738 0 1.465-.025 2.162-.075l.14 2.017c-.743.054-1.518.08-2.302.08-4.817 0-9.837-1.009-12.533-2.924v3.67h.001c.005.547.489 1.16 1.364 1.737 2.268 1.474 6.549 2.393 11.168 2.393h.33v2.022h-.33c-4.778 0-9.86-1.008-12.532-2.543-.322.298 0 1.01 0 1.548 0 1.725 4.768 4.13 12.532 4.13 7.765 0 12.532-2.405 12.532-4.13 0-.61-.6-1.174-1.092-1.538-.41.247-.86.483-1.372.7l-.768-1.868c.53-.223.99-.463 1.364-.711 1.1-.734 1.804-1.779 1.804-2.175h2c0 .94-.621 1.947-1.417 2.775 1.192 1.04 1.48 2.078 1.48 2.817ZM17.142 48.39c.791.408 1.716.772 2.752 1.08l.564-1.94a13.863 13.863 0 0 1-2.406-.94l-.91 1.8Zm2.752-11.05.564-1.94c-.916-.272-1.726-.589-2.406-.94l-.91 1.799c.791.41 1.716.772 2.752 1.08Zm-2.752-13.21.91-1.801c.68.352 1.49.668 2.406.94l-.564 1.94a15.945 15.945 0 0 1-2.752-1.08Z"></path></g></svg></svg></g></svg></g></g><g><g id="390f3bd3-7fcf-423c-a753-57f970a15833"><svg x="-855" y="945" overflow="visible"><g transform="scale(1.3975424859373686) "><circle cx="0" cy="0" fill="transparent" r="40"></circle><svg width="100" height="100" x="-50" y="-50" style="fill: rgb(255, 255, 255);"><svg xmlns="http://www.w3.org/2000/svg" width="100" height="100" data-name="Layer 1" viewBox="0 0 100 100"><g><path fill="#4b612c" d="M79.5 79.9h-59a3 3 0 0 1-3-3V31a3 3 0 0 1 3-3h59.1a3 3 0 0 1 3 3v46a3.08 3.08 0 0 1-3.1 2.9Z"></path><path fill="#759c3e" d="M79.5 75.9h-59a3 3 0 0 1-3-3V27a3 3 0 0 1 3-3h59.1a3 3 0 0 1 3 3v46a3.08 3.08 0 0 1-3.1 2.9Z"></path><path fill="#fff" d="M30.3 28.1H79v4.4H30.3z"></path><circle cx="23.8" cy="30.3" r="3.5" fill="#fff"></circle><path fill="#fff" d="M21 36.8h58v35.1H21z"></path><path fill="#759c3e" d="m55.5 58.1-.2.6-.5 1.4-1.3-.6-.6-.3-.3.5-.9 1.2-1.1-.9-.5-.4-.4.4-1.2.9-.8-1.2-.3-.5-.6.3-1.3.6-.5-1.4-.2-.6-1 .2H43v11l7-5.9 7 5.9v-11h-.7l-.8-.2z"></path><path fill="#759c3e" d="m59.1 48.8 1.2-1.3-1.5-1 .8-1.6-1.7-.6.4-1.7-1.8-.2-.1-1.7-1.8.3-.5-1.6-1.6.7-1-1.4-1.4 1.1-1.3-1.1-1 1.4-1.6-.7-.6 1.6-1.7-.3-.1 1.7-1.8.2.3 1.7-1.6.6.7 1.6-1.4 1 1.1 1.3-1.1 1.3 1.4 1-.7 1.6 1.6.6-.5 1.7 1.4.2h.3l.3 1.7 1.8-.3.6 1.7 1.6-.8 1 1.5 1.3-1.2 1.4 1.2 1-1.5 1.6.8.5-1.7 1.8.3.2-1.7h.1l1.6-.2-.4-1.7 1.7-.6-.8-1.6 1.5-1-1.2-1.3z"></path><path fill="#fff" d="m48.4 49.8-2.5-2.7-2.8 2.8 5.2 5.2 8.8-8.8-2-2.1-6.7 5.6z"></path></g></svg></svg></g></svg></g></g><g><g id="016b29aa-9205-4a4c-afd6-793da2ae6939"><svg x="-135" y="945" overflow="visible"><g transform="scale(1.3975424859373686) "><circle cx="0" cy="0" fill="transparent" r="40"></circle><svg width="100" height="100" x="-50" y="-50" style="fill: rgb(255, 255, 255);"><svg xmlns="http://www.w3.org/2000/svg" width="100" height="100" data-name="Layer 1" viewBox="0 0 100 100"><g><path fill="#4b612c" d="M79.5 79.9h-59a3 3 0 0 1-3-3V31a3 3 0 0 1 3-3h59.1a3 3 0 0 1 3 3v46a3.08 3.08 0 0 1-3.1 2.9Z"></path><path fill="#759c3e" d="M79.5 75.9h-59a3 3 0 0 1-3-3V27a3 3 0 0 1 3-3h59.1a3 3 0 0 1 3 3v46a3.08 3.08 0 0 1-3.1 2.9Z"></path><path fill="#fff" d="M30.3 28.1H79v4.4H30.3z"></path><circle cx="23.8" cy="30.3" r="3.5" fill="#fff"></circle><path fill="#fff" d="M21 36.8h58v35.1H21z"></path><path fill="#759c3e" d="m55.5 58.1-.2.6-.5 1.4-1.3-.6-.6-.3-.3.5-.9 1.2-1.1-.9-.5-.4-.4.4-1.2.9-.8-1.2-.3-.5-.6.3-1.3.6-.5-1.4-.2-.6-1 .2H43v11l7-5.9 7 5.9v-11h-.7l-.8-.2z"></path><path fill="#759c3e" d="m59.1 48.8 1.2-1.3-1.5-1 .8-1.6-1.7-.6.4-1.7-1.8-.2-.1-1.7-1.8.3-.5-1.6-1.6.7-1-1.4-1.4 1.1-1.3-1.1-1 1.4-1.6-.7-.6 1.6-1.7-.3-.1 1.7-1.8.2.3 1.7-1.6.6.7 1.6-1.4 1 1.1 1.3-1.1 1.3 1.4 1-.7 1.6 1.6.6-.5 1.7 1.4.2h.3l.3 1.7 1.8-.3.6 1.7 1.6-.8 1 1.5 1.3-1.2 1.4 1.2 1-1.5 1.6.8.5-1.7 1.8.3.2-1.7h.1l1.6-.2-.4-1.7 1.7-.6-.8-1.6 1.5-1-1.2-1.3z"></path><path fill="#fff" d="m48.4 49.8-2.5-2.7-2.8 2.8 5.2 5.2 8.8-8.8-2-2.1-6.7 5.6z"></path></g></svg></svg></g></svg></g></g><g><g id="c47b119b-1e90-40ee-9c6e-4271851cd986"><svg x="-1035" y="1665" overflow="visible"><g transform="scale(1.3975424859373686) "><circle cx="0" cy="0" fill="transparent" r="40"></circle><svg width="100" height="100" x="-50" y="-50" style="fill: rgb(255, 255, 255);"><svg xmlns="http://www.w3.org/2000/svg" width="100" height="100" data-name="Layer 1" viewBox="0 0 100 100"><g><path fill="#4b612c" d="M79.5 79.9h-59a3 3 0 0 1-3-3V31a3 3 0 0 1 3-3h59.1a3 3 0 0 1 3 3v46a3.08 3.08 0 0 1-3.1 2.9Z"></path><path fill="#759c3e" d="M79.5 75.9h-59a3 3 0 0 1-3-3V27a3 3 0 0 1 3-3h59.1a3 3 0 0 1 3 3v46a3.08 3.08 0 0 1-3.1 2.9Z"></path><path fill="#fff" d="M30.3 28.1H79v4.4H30.3z"></path><circle cx="23.8" cy="30.3" r="3.5" fill="#fff"></circle><path fill="#fff" d="M21 36.8h58v35.1H21z"></path><path fill="#759c3e" d="m55.5 58.1-.2.6-.5 1.4-1.3-.6-.6-.3-.3.5-.9 1.2-1.1-.9-.5-.4-.4.4-1.2.9-.8-1.2-.3-.5-.6.3-1.3.6-.5-1.4-.2-.6-1 .2H43v11l7-5.9 7 5.9v-11h-.7l-.8-.2z"></path><path fill="#759c3e" d="m59.1 48.8 1.2-1.3-1.5-1 .8-1.6-1.7-.6.4-1.7-1.8-.2-.1-1.7-1.8.3-.5-1.6-1.6.7-1-1.4-1.4 1.1-1.3-1.1-1 1.4-1.6-.7-.6 1.6-1.7-.3-.1 1.7-1.8.2.3 1.7-1.6.6.7 1.6-1.4 1 1.1 1.3-1.1 1.3 1.4 1-.7 1.6 1.6.6-.5 1.7 1.4.2h.3l.3 1.7 1.8-.3.6 1.7 1.6-.8 1 1.5 1.3-1.2 1.4 1.2 1-1.5 1.6.8.5-1.7 1.8.3.2-1.7h.1l1.6-.2-.4-1.7 1.7-.6-.8-1.6 1.5-1-1.2-1.3z"></path><path fill="#fff" d="m48.4 49.8-2.5-2.7-2.8 2.8 5.2 5.2 8.8-8.8-2-2.1-6.7 5.6z"></path></g></svg></svg></g></svg></g></g><g><g id="a50dee94-94dc-4bba-a2f7-8b71ea34094e"><svg x="45" y="1845" overflow="visible"><g transform="scale(1.3975424859373686) "><circle cx="0" cy="0" fill="transparent" r="40"></circle><svg width="100" height="100" x="-50" y="-50" style="fill: rgb(255, 255, 255);"><svg xmlns="http://www.w3.org/2000/svg" width="100" height="100" data-name="Layer 1" viewBox="0 0 100 100"><g><path fill="#4b612c" d="M79.5 79.9h-59a3 3 0 0 1-3-3V31a3 3 0 0 1 3-3h59.1a3 3 0 0 1 3 3v46a3.08 3.08 0 0 1-3.1 2.9Z"></path><path fill="#759c3e" d="M79.5 75.9h-59a3 3 0 0 1-3-3V27a3 3 0 0 1 3-3h59.1a3 3 0 0 1 3 3v46a3.08 3.08 0 0 1-3.1 2.9Z"></path><path fill="#fff" d="M30.3 28.1H79v4.4H30.3z"></path><circle cx="23.8" cy="30.3" r="3.5" fill="#fff"></circle><path fill="#fff" d="M21 36.8h58v35.1H21z"></path><path fill="#759c3e" d="m55.5 58.1-.2.6-.5 1.4-1.3-.6-.6-.3-.3.5-.9 1.2-1.1-.9-.5-.4-.4.4-1.2.9-.8-1.2-.3-.5-.6.3-1.3.6-.5-1.4-.2-.6-1 .2H43v11l7-5.9 7 5.9v-11h-.7l-.8-.2z"></path><path fill="#759c3e" d="m59.1 48.8 1.2-1.3-1.5-1 .8-1.6-1.7-.6.4-1.7-1.8-.2-.1-1.7-1.8.3-.5-1.6-1.6.7-1-1.4-1.4 1.1-1.3-1.1-1 1.4-1.6-.7-.6 1.6-1.7-.3-.1 1.7-1.8.2.3 1.7-1.6.6.7 1.6-1.4 1 1.1 1.3-1.1 1.3 1.4 1-.7 1.6 1.6.6-.5 1.7 1.4.2h.3l.3 1.7 1.8-.3.6 1.7 1.6-.8 1 1.5 1.3-1.2 1.4 1.2 1-1.5 1.6.8.5-1.7 1.8.3.2-1.7h.1l1.6-.2-.4-1.7 1.7-.6-.8-1.6 1.5-1-1.2-1.3z"></path><path fill="#fff" d="m48.4 49.8-2.5-2.7-2.8 2.8 5.2 5.2 8.8-8.8-2-2.1-6.7 5.6z"></path></g></svg></svg></g></svg></g></g><g><g id="d513551a-6682-4679-9a97-d480cd234fcf"><svg x="-1035" y="1845" overflow="visible"><g transform="scale(1.4131949617798671) "><circle cx="0" cy="0" fill="transparent" r="31"></circle><svg width="48" height="48" x="-24" y="-24" style="fill: rgb(255, 255, 255);"><svg xmlns="http://www.w3.org/2000/svg" width="48" height="48" viewBox="0 0 48 48"><g fill="none" fill-rule="evenodd"><path fill="#3F8624" d="m40.504 26.16.224-1.666c1.784 1.087 2.335 1.715 2.495 1.98-.473.143-1.428.017-2.72-.314Zm-17.702-6.049c0-.053.043-.096.096-.096.015 0 .026.01.039.017l-.073.147c-.033-.01-.062-.03-.062-.068Zm13.712 20.687a1.002 1.002 0 0 0-.01.133c0 .155-.378.744-2.063 1.41-.751.296-1.638.562-2.638.792-2.575.596-5.74.924-8.907.924-8.466 0-13.607-2.17-13.607-3.126 0-.044-.003-.088-.01-.133L5.442 12.285c.247.144.512.281.79.415.079.038.165.074.247.112a15.46 15.46 0 0 0 1.089.453c.276.104.56.204.856.3.087.03.17.06.258.086a26.69 26.69 0 0 0 1.522.427 29.753 29.753 0 0 0 1.378.32c.365.077.738.151 1.117.22l.244.046c.458.08.927.154 1.403.224.134.02.27.036.406.054.36.05.725.096 1.093.14l.453.051c.444.047.892.09 1.343.13.053.003.107.01.162.013.504.041 1.01.074 1.519.104.145.008.29.014.436.021.384.02.768.034 1.152.047l.45.014c.513.011 1.026.02 1.537.02a71.769 71.769 0 0 0 1.987-.034c.385-.013.768-.028 1.15-.047l.439-.02c.509-.03 1.015-.064 1.518-.105l.166-.014c.45-.039.896-.082 1.338-.129l.457-.052c.366-.043.73-.089 1.089-.138.137-.018.275-.036.41-.056a50.22 50.22 0 0 0 1.402-.223c.083-.015.164-.03.247-.047a37.893 37.893 0 0 0 2.493-.539l.344-.086c.406-.108.799-.222 1.178-.34.087-.028.169-.057.254-.086a18.82 18.82 0 0 0 1.954-.756c.079-.037.163-.072.24-.109.279-.134.545-.272.792-.416l-1.792 13.306c-3.637-1.167-8.745-3.284-13.58-5.583a2.092 2.092 0 0 0-2.084-1.993 2.099 2.099 0 0 0-2.096 2.096c0 1.155.94 2.095 2.096 2.095.454 0 .872-.149 1.215-.396 4.332 2.08 9.863 4.532 14.18 5.778l-1.78 13.21ZM22.896 4c10.419 0 17.76 3.228 17.896 5.021l-.026.208c-.018.062-.057.125-.09.19-.027.051-.047.101-.084.154-.044.062-.11.125-.166.188-.051.055-.094.11-.155.166-.068.061-.155.124-.236.186-.075.058-.141.115-.227.174-.091.06-.2.122-.302.184-.1.06-.19.12-.301.178-.11.06-.24.118-.36.178-.124.061-.24.121-.376.182-.13.057-.276.114-.414.171-.15.06-.291.122-.451.181-.148.056-.314.11-.471.164-.171.06-.335.12-.517.177-.17.054-.355.104-.534.157-.19.056-.373.113-.573.167-.192.052-.4.1-.6.15-.206.051-.406.104-.623.154-.216.05-.448.094-.674.141-.218.045-.43.093-.658.136-.24.046-.497.087-.747.13-.23.04-.453.081-.692.118-.26.04-.536.076-.806.113-.244.033-.482.07-.734.1-.293.036-.602.066-.905.097-.244.026-.48.055-.73.077-.336.031-.688.054-1.034.078-.233.018-.458.038-.696.053-.38.022-.776.036-1.17.053-.215.008-.425.021-.646.028a65.284 65.284 0 0 1-3.797 0c-.222-.007-.434-.02-.654-.029-.39-.016-.783-.03-1.161-.052-.25-.016-.488-.037-.733-.055-.333-.024-.673-.046-.996-.076-.251-.022-.487-.052-.732-.077-.303-.03-.612-.06-.904-.097-.25-.03-.487-.066-.73-.1-.27-.037-.548-.072-.81-.113-.247-.038-.48-.082-.718-.123-.241-.042-.488-.08-.72-.125-.231-.044-.446-.092-.67-.138-.222-.047-.45-.09-.663-.14-.216-.049-.415-.102-.622-.153-.2-.05-.408-.098-.6-.15-.202-.054-.387-.112-.58-.169-.176-.05-.36-.102-.526-.155-.185-.059-.351-.119-.524-.18-.155-.053-.318-.106-.463-.16-.162-.06-.303-.123-.453-.183-.138-.057-.285-.114-.413-.17-.134-.06-.251-.12-.375-.182-.121-.06-.251-.118-.361-.179-.11-.059-.202-.119-.302-.179-.101-.06-.21-.122-.3-.182-.087-.06-.155-.118-.231-.177-.08-.06-.165-.123-.231-.183-.063-.057-.107-.114-.16-.169-.055-.062-.118-.124-.162-.185-.038-.054-.057-.106-.085-.16-.032-.062-.071-.124-.088-.184l-.028-.209C5.14 7.227 12.48 4 22.896 4Zm22.359 22.257c-.213-1.15-1.538-2.368-4.237-3.91l1.716-12.752v-.004l.05-.39a.932.932 0 0 0 .01-.13c0-4.167-10.486-7.07-19.898-7.07C13.485 2 3 4.903 3 9.07c0 .044.003.088.009.132l.052.39v.002L7.29 41.01c.13 3.676 9.613 5.048 15.606 5.048 3.315 0 6.638-.346 9.357-.975a20.661 20.661 0 0 0 2.922-.882c2.166-.855 3.285-1.929 3.329-3.19l1.74-12.93c.953.202 1.818.325 2.537.325.969 0 1.694-.205 2.086-.673.35-.416.488-.94.388-1.475Z"></path></g></svg></svg></g></svg></g></g><g><g id="1f0031e5-c669-4c02-9429-681d01415ed6"><svg x="45" y="2025" overflow="visible"><g transform="scale(1.4131949617798671) "><circle cx="0" cy="0" fill="transparent" r="31"></circle><svg width="48" height="48" x="-24" y="-24" style="fill: rgb(255, 255, 255);"><svg xmlns="http://www.w3.org/2000/svg" width="48" height="48" viewBox="0 0 48 48"><g fill="none" fill-rule="evenodd"><path fill="#3F8624" d="m40.504 26.16.224-1.666c1.784 1.087 2.335 1.715 2.495 1.98-.473.143-1.428.017-2.72-.314Zm-17.702-6.049c0-.053.043-.096.096-.096.015 0 .026.01.039.017l-.073.147c-.033-.01-.062-.03-.062-.068Zm13.712 20.687a1.002 1.002 0 0 0-.01.133c0 .155-.378.744-2.063 1.41-.751.296-1.638.562-2.638.792-2.575.596-5.74.924-8.907.924-8.466 0-13.607-2.17-13.607-3.126 0-.044-.003-.088-.01-.133L5.442 12.285c.247.144.512.281.79.415.079.038.165.074.247.112a15.46 15.46 0 0 0 1.089.453c.276.104.56.204.856.3.087.03.17.06.258.086a26.69 26.69 0 0 0 1.522.427 29.753 29.753 0 0 0 1.378.32c.365.077.738.151 1.117.22l.244.046c.458.08.927.154 1.403.224.134.02.27.036.406.054.36.05.725.096 1.093.14l.453.051c.444.047.892.09 1.343.13.053.003.107.01.162.013.504.041 1.01.074 1.519.104.145.008.29.014.436.021.384.02.768.034 1.152.047l.45.014c.513.011 1.026.02 1.537.02a71.769 71.769 0 0 0 1.987-.034c.385-.013.768-.028 1.15-.047l.439-.02c.509-.03 1.015-.064 1.518-.105l.166-.014c.45-.039.896-.082 1.338-.129l.457-.052c.366-.043.73-.089 1.089-.138.137-.018.275-.036.41-.056a50.22 50.22 0 0 0 1.402-.223c.083-.015.164-.03.247-.047a37.893 37.893 0 0 0 2.493-.539l.344-.086c.406-.108.799-.222 1.178-.34.087-.028.169-.057.254-.086a18.82 18.82 0 0 0 1.954-.756c.079-.037.163-.072.24-.109.279-.134.545-.272.792-.416l-1.792 13.306c-3.637-1.167-8.745-3.284-13.58-5.583a2.092 2.092 0 0 0-2.084-1.993 2.099 2.099 0 0 0-2.096 2.096c0 1.155.94 2.095 2.096 2.095.454 0 .872-.149 1.215-.396 4.332 2.08 9.863 4.532 14.18 5.778l-1.78 13.21ZM22.896 4c10.419 0 17.76 3.228 17.896 5.021l-.026.208c-.018.062-.057.125-.09.19-.027.051-.047.101-.084.154-.044.062-.11.125-.166.188-.051.055-.094.11-.155.166-.068.061-.155.124-.236.186-.075.058-.141.115-.227.174-.091.06-.2.122-.302.184-.1.06-.19.12-.301.178-.11.06-.24.118-.36.178-.124.061-.24.121-.376.182-.13.057-.276.114-.414.171-.15.06-.291.122-.451.181-.148.056-.314.11-.471.164-.171.06-.335.12-.517.177-.17.054-.355.104-.534.157-.19.056-.373.113-.573.167-.192.052-.4.1-.6.15-.206.051-.406.104-.623.154-.216.05-.448.094-.674.141-.218.045-.43.093-.658.136-.24.046-.497.087-.747.13-.23.04-.453.081-.692.118-.26.04-.536.076-.806.113-.244.033-.482.07-.734.1-.293.036-.602.066-.905.097-.244.026-.48.055-.73.077-.336.031-.688.054-1.034.078-.233.018-.458.038-.696.053-.38.022-.776.036-1.17.053-.215.008-.425.021-.646.028a65.284 65.284 0 0 1-3.797 0c-.222-.007-.434-.02-.654-.029-.39-.016-.783-.03-1.161-.052-.25-.016-.488-.037-.733-.055-.333-.024-.673-.046-.996-.076-.251-.022-.487-.052-.732-.077-.303-.03-.612-.06-.904-.097-.25-.03-.487-.066-.73-.1-.27-.037-.548-.072-.81-.113-.247-.038-.48-.082-.718-.123-.241-.042-.488-.08-.72-.125-.231-.044-.446-.092-.67-.138-.222-.047-.45-.09-.663-.14-.216-.049-.415-.102-.622-.153-.2-.05-.408-.098-.6-.15-.202-.054-.387-.112-.58-.169-.176-.05-.36-.102-.526-.155-.185-.059-.351-.119-.524-.18-.155-.053-.318-.106-.463-.16-.162-.06-.303-.123-.453-.183-.138-.057-.285-.114-.413-.17-.134-.06-.251-.12-.375-.182-.121-.06-.251-.118-.361-.179-.11-.059-.202-.119-.302-.179-.101-.06-.21-.122-.3-.182-.087-.06-.155-.118-.231-.177-.08-.06-.165-.123-.231-.183-.063-.057-.107-.114-.16-.169-.055-.062-.118-.124-.162-.185-.038-.054-.057-.106-.085-.16-.032-.062-.071-.124-.088-.184l-.028-.209C5.14 7.227 12.48 4 22.896 4Zm22.359 22.257c-.213-1.15-1.538-2.368-4.237-3.91l1.716-12.752v-.004l.05-.39a.932.932 0 0 0 .01-.13c0-4.167-10.486-7.07-19.898-7.07C13.485 2 3 4.903 3 9.07c0 .044.003.088.009.132l.052.39v.002L7.29 41.01c.13 3.676 9.613 5.048 15.606 5.048 3.315 0 6.638-.346 9.357-.975a20.661 20.661 0 0 0 2.922-.882c2.166-.855 3.285-1.929 3.329-3.19l1.74-12.93c.953.202 1.818.325 2.537.325.969 0 1.694-.205 2.086-.673.35-.416.488-.94.388-1.475Z"></path></g></svg></svg></g></svg></g></g><g><g id="0f138b88-cb4a-4799-b174-8e05df07e54e"><svg x="-495" y="1215" overflow="visible"><g transform="scale(1.4131949617798671) "><circle cx="0" cy="0" fill="transparent" r="31"></circle><svg width="48" height="48" x="-24" y="-24" style="fill: rgb(255, 255, 255);"><svg xmlns="http://www.w3.org/2000/svg" width="48" height="48" viewBox="0 0 48 48"><g fill="none" fill-rule="evenodd"><path fill="#3F8624" d="m40.354 26.059.222-1.647c1.76 1.072 2.311 1.695 2.473 1.96-.47.14-1.418.013-2.695-.313Zm-17.627-6.021c0-.049.04-.09.09-.09.015 0 .024.009.037.015l-.069.14c-.032-.009-.058-.027-.058-.065Zm13.646 20.599a1.005 1.005 0 0 0-.009.134c0 .152-.377.736-2.054 1.399-.748.295-1.631.561-2.626.789-2.566.594-5.716.921-8.868.921-8.428 0-13.545-2.159-13.545-3.109 0-.045-.003-.089-.009-.134L5.44 12.253c.245.143.51.28.786.413.069.034.146.066.218.099a16.513 16.513 0 0 0 1.101.459c.281.106.571.207.871.305.08.026.157.054.239.08.382.12.777.234 1.185.343.103.027.21.052.316.079a39.758 39.758 0 0 0 1.383.322c.372.078.75.152 1.134.223.077.013.15.029.227.042.46.081.93.155 1.406.224.128.019.258.035.387.053.366.05.734.097 1.107.14l.44.05c.445.048.893.091 1.345.129l.158.015a57.545 57.545 0 0 0 1.942.124c.384.019.768.035 1.152.047.151.005.3.01.451.013.51.012 1.02.021 1.528.021a65.1 65.1 0 0 0 1.528-.021c.151-.003.3-.008.45-.013a63.206 63.206 0 0 0 1.579-.069 57.99 57.99 0 0 0 1.518-.102l.15-.014c.455-.038.906-.082 1.353-.131.147-.015.291-.032.436-.048a53.04 53.04 0 0 0 1.116-.142c.126-.018.253-.033.379-.052.478-.069.95-.143 1.412-.224.071-.013.14-.028.212-.04.39-.072.773-.147 1.15-.226l.392-.086c.339-.075.671-.154.995-.237.101-.026.205-.05.306-.077a27.28 27.28 0 0 0 1.19-.344l.228-.076c.304-.1.599-.202.883-.31.108-.04.214-.082.319-.123.272-.108.534-.221.784-.337.069-.032.143-.062.211-.095.277-.133.542-.271.788-.414L38.413 25.49c-3.621-1.162-8.705-3.269-13.516-5.557a2.088 2.088 0 0 0-2.08-1.985c-1.152 0-2.09.937-2.09 2.09 0 1.154.938 2.091 2.09 2.091.452 0 .869-.147 1.211-.392 4.313 2.068 9.817 4.509 14.115 5.75l-1.77 13.15ZM22.816 4c10.372 0 17.68 3.212 17.816 4.995l-.026.207c-.019.061-.058.125-.091.188-.027.051-.046.102-.082.153-.045.064-.11.128-.17.193-.05.052-.09.105-.148.158-.072.065-.162.13-.247.195-.072.055-.134.109-.214.163-.096.065-.21.13-.32.195-.092.055-.177.111-.28.166-.117.063-.253.127-.383.189-.116.057-.223.113-.349.169-.139.062-.296.122-.447.184-.136.055-.266.112-.413.167-.161.06-.339.119-.511.177-.158.054-.307.11-.473.163-.18.056-.377.111-.567.167-.179.051-.349.105-.536.155-.198.054-.412.103-.619.154-.199.05-.391.102-.6.149-.215.048-.448.094-.672.14-.218.046-.428.093-.654.136-.242.046-.499.087-.75.13-.228.039-.448.081-.682.117-.266.041-.547.076-.822.114-.238.032-.468.069-.712.098-.286.035-.588.063-.884.095-.249.026-.49.055-.746.079-.324.029-.664.05-.998.075-.241.017-.475.039-.722.054-.38.023-.775.037-1.168.052-.215.009-.422.023-.64.029a64.835 64.835 0 0 1-3.78 0c-.211-.006-.412-.02-.62-.028-.399-.015-.802-.03-1.188-.053-.236-.014-.457-.035-.687-.051-.347-.026-.698-.048-1.034-.078-.241-.023-.469-.05-.704-.075-.31-.033-.626-.062-.926-.099-.229-.027-.444-.062-.668-.092-.291-.04-.587-.077-.866-.12-.22-.034-.425-.073-.638-.109-.265-.046-.538-.089-.794-.138-.214-.041-.412-.086-.618-.128-.237-.05-.481-.097-.708-.148-.197-.045-.379-.094-.568-.141-.219-.054-.444-.107-.651-.162-.177-.048-.339-.1-.509-.149-.2-.058-.406-.115-.593-.174-.16-.051-.304-.104-.455-.156-.178-.061-.363-.122-.529-.183-.141-.054-.265-.108-.398-.161-.155-.064-.318-.126-.461-.191-.122-.054-.227-.109-.34-.164-.133-.064-.272-.129-.391-.193-.102-.055-.185-.11-.277-.164-.11-.066-.226-.131-.323-.197-.079-.054-.142-.108-.212-.162-.085-.065-.177-.131-.248-.196-.059-.053-.1-.106-.148-.158-.06-.065-.125-.129-.17-.193-.037-.051-.056-.102-.082-.153-.034-.063-.074-.127-.091-.188l-.027-.207C5.139 7.212 12.446 4 22.816 4Zm22.268 22.158c-.212-1.145-1.531-2.358-4.219-3.895l1.71-12.696v-.004l.05-.388a.947.947 0 0 0 .009-.13C42.634 4.894 32.19 2 22.816 2 13.444 2 3 4.894 3 9.045c0 .043.003.087.009.13l.051.388v.004l4.212 31.281c.132 3.664 9.576 5.032 15.544 5.032 3.299 0 6.608-.344 9.318-.971a20.544 20.544 0 0 0 2.911-.879c2.159-.854 3.274-1.924 3.318-3.182l1.732-12.869c.946.2 1.807.322 2.523.322.965 0 1.688-.204 2.079-.671.348-.415.486-.938.387-1.472Zm-32.43.272 2.596-4.327 2.596 4.327h-5.192Zm7.829 1.492a.997.997 0 0 0-.013-1.007l-4.363-7.27c-.361-.602-1.354-.602-1.715 0l-4.362 7.27a.999.999 0 0 0 .857 1.515h8.726c.36 0 .692-.193.87-.508Zm9.163 1.38c1.613 0 2.926 1.323 2.926 2.95 0 1.626-1.313 2.95-2.926 2.95-1.613 0-2.926-1.324-2.926-2.95 0-1.627 1.313-2.95 2.926-2.95Zm0 7.9c2.716 0 4.926-2.22 4.926-4.95 0-2.729-2.21-4.95-4.926-4.95s-4.926 2.221-4.926 4.95c0 2.73 2.21 4.95 4.926 4.95Zm-15.047 1.443h4.897v-4.979h-4.897v4.979Zm5.897-6.98h-6.898a1 1 0 0 0-1 1v6.98a1 1 0 0 0 1 1h6.898a1 1 0 0 0 1-1v-6.98a1 1 0 0 0-1-1Z"></path></g></svg></svg></g></svg></g></g></g><g pointer-events="auto"><g><g id="148090f2-2b40-4120-9ca5-cf7ff384ef3a"><svg x="-630" y="900" overflow="visible"><text stroke="#ffffff" stroke-width="4" font-family="Open Sans" y="36.5" font-size="25pt" fill="#000000" font-weight="bold" transform="" xml:space="preserve"><tspan x="8" dy="0">hearch.co</tspan></text><text font-family="Open Sans" y="36.5" font-size="25pt" fill="#000000" font-weight="bold" transform="" xml:space="preserve"><tspan x="8" dy="0">hearch.co</tspan></text></svg></g></g><g><g id="7802fbb0-40c7-44d5-84b0-c63101bc615f"><svg x="-607" y="945" overflow="visible"><text stroke="#ffffff" stroke-width="4" font-family="Open Sans" y="36.5" font-size="25pt" fill="#000000" font-weight="bold" transform="" xml:space="preserve"><tspan x="8" dy="0">api.hearch.co</tspan></text><text font-family="Open Sans" y="36.5" font-size="25pt" fill="#000000" font-weight="bold" transform="" xml:space="preserve"><tspan x="8" dy="0">api.hearch.co</tspan></text></svg></g></g><g><g id="0ece5bbd-536c-46ea-a824-5178cab00c13"><svg x="-585" y="585" overflow="visible"><text stroke="#ffffff" stroke-width="4" font-family="Open Sans" y="36.5" font-size="25pt" fill="#000000" font-weight="bold" transform="" xml:space="preserve"><tspan x="8" dy="0">hearch.co</tspan></text><text font-family="Open Sans" y="36.5" font-size="25pt" fill="#000000" font-weight="bold" transform="" xml:space="preserve"><tspan x="8" dy="0">hearch.co</tspan></text></svg></g></g><g><g id="9b8d9a65-fe22-4703-8c70-726e04cd8a11"><svg x="-810" y="1350" overflow="visible"><text stroke="#ffffff" stroke-width="4" font-family="Open Sans" y="36.5" font-size="25pt" fill="#000000" font-weight="bold" transform="" xml:space="preserve"><tspan x="8" dy="0">gateway.hearch.co (latency)</tspan></text><text font-family="Open Sans" y="36.5" font-size="25pt" fill="#000000" font-weight="bold" transform="" xml:space="preserve"><tspan x="8" dy="0">gateway.hearch.co (latency)</tspan></text></svg></g></g><g><g id="e13a48c4-a7ab-4ce7-9b09-4e6e30d10581"><svg x="-720" y="1395" overflow="visible"><text stroke="#ffffff" stroke-width="4" font-family="Open Sans" y="36.5" font-size="25pt" fill="#000000" font-weight="bold" transform="" xml:space="preserve"><tspan x="8" dy="0">gateway.api.hearch.co (latency)</tspan></text><text font-family="Open Sans" y="36.5" font-size="25pt" fill="#000000" font-weight="bold" transform="" xml:space="preserve"><tspan x="8" dy="0">gateway.api.hearch.co (latency)</tspan></text></svg></g></g><g><g id="98daef6d-1179-40cd-bf98-b92df5f87e73"><svg x="-810" y="1620" overflow="visible"><text stroke="#ffffff" stroke-width="4" font-family="Open Sans" y="36.5" font-size="25pt" fill="#000000" font-weight="bold" transform="" xml:space="preserve"><tspan x="8" dy="0">&lt;region&gt;.gateway.hearch.co</tspan></text><text font-family="Open Sans" y="36.5" font-size="25pt" fill="#000000" font-weight="bold" transform="" xml:space="preserve"><tspan x="8" dy="0">&lt;region&gt;.gateway.hearch.co</tspan></text></svg></g></g><g><g id="cd152a21-2fb2-40c1-a250-6e8987c96bc0"><svg x="-742" y="1845" overflow="visible"><text stroke="#ffffff" stroke-width="4" font-family="Open Sans" y="36.5" font-size="25pt" fill="#000000" font-weight="bold" transform="" xml:space="preserve"><tspan x="8" dy="0">&lt;region&gt;.gateway.api.hearch.co</tspan></text><text font-family="Open Sans" y="36.5" font-size="25pt" fill="#000000" font-weight="bold" transform="" xml:space="preserve"><tspan x="8" dy="0">&lt;region&gt;.gateway.api.hearch.co</tspan></text></svg></g></g><g><g id="dbb829f6-a20f-4983-ae24-b6bdd2716e17"><svg x="-810" y="1800" overflow="visible"><text stroke="#ffffff" stroke-width="4" font-family="Open Sans" y="36.5" font-size="25pt" fill="#000000" font-weight="bold" transform="" xml:space="preserve"><tspan x="8" dy="0">SvelteKit frontend</tspan></text><text font-family="Open Sans" y="36.5" font-size="25pt" fill="#000000" font-weight="bold" transform="" xml:space="preserve"><tspan x="8" dy="0">SvelteKit frontend</tspan></text></svg></g></g><g><g id="a92259cc-57c1-4e94-9645-4c7ba510238f"><svg x="-315" y="2025" overflow="visible"><text stroke="#ffffff" stroke-width="4" font-family="Open Sans" y="36.5" font-size="25pt" fill="#000000" font-weight="bold" transform="" xml:space="preserve"><tspan x="8" dy="0">Go API</tspan></text><text font-family="Open Sans" y="36.5" font-size="25pt" fill="#000000" font-weight="bold" transform="" xml:space="preserve"><tspan x="8" dy="0">Go API</tspan></text></svg></g></g><g><g id="1adcb5d1-ad60-4bc2-b844-98257ff38624"><svg x="-360" y="2205" overflow="visible"><text stroke="#ffffff" stroke-width="4" font-family="Open Sans" y="36.5" font-size="25pt" fill="#000000" font-weight="bold" transform="" xml:space="preserve"><tspan x="8" dy="0">Cache DB</tspan><tspan x="8" dy="1.1em">(global &amp; replicated)</tspan></text><text font-family="Open Sans" y="36.5" font-size="25pt" fill="#000000" font-weight="bold" transform="" xml:space="preserve"><tspan x="8" dy="0">Cache DB</tspan><tspan x="8" dy="1.1em">(global &amp; replicated)</tspan></text></svg></g></g><g><g id="78c0dc34-014d-45f2-8250-e3c2e79af2fd"><svg x="-765" y="1170" overflow="visible"><text stroke="#ffffff" stroke-width="4" font-family="Open Sans" y="36.5" font-size="25pt" fill="#000000" font-weight="bold" transform="" xml:space="preserve"><tspan x="8" dy="0">Static assets</tspan></text><text font-family="Open Sans" y="36.5" font-size="25pt" fill="#000000" font-weight="bold" transform="" xml:space="preserve"><tspan x="8" dy="0">Static assets</tspan></text></svg></g></g></g></g></svg>